<svg xmlns="http://www.w3.org/2000/svg" width="116" height="36" fill="none" class="baadmaysvg"><g clip-path="url(#a)"><path fill="#690EF5" d="M110.957 0H5.043A5.043 5.043 0 0 0 0 5.043v25.218a5.043 5.043 0 0 0 5.043 5.043h105.914A5.043 5.043 0 0 0 116 30.261V5.043A5.043 5.043 0 0 0 110.957 0Z"/><path fill="#fff" d="M17.933 12.533a5.666 5.666 0 0 1 2.988 2.964 5.615 5.615 0 0 1 0 4.345 5.733 5.733 0 0 1-1.197 1.796 5.533 5.533 0 0 1-3.977 1.643 5.654 5.654 0 0 1-3.995-1.643 5.72 5.72 0 0 1-1.227-1.793 5.448 5.448 0 0 1-.438-2.167V7.614h2.234V12.1h3.417a5.53 5.53 0 0 1 2.195.434Zm-2.195 8.532a3.402 3.402 0 0 0 2.836-1.51 3.361 3.361 0 0 0 .566-1.877 3.282 3.282 0 0 0-.263-1.309 3.406 3.406 0 0 0-1.808-1.793 3.35 3.35 0 0 0-1.317-.261h-3.431v3.363c-.003.453.088.902.266 1.319a3.366 3.366 0 0 0 1.258 1.51c.56.368 1.22.563 1.893.558ZM28.166 12.052a5.532 5.532 0 0 1 2.196.44 5.666 5.666 0 0 1 2.987 2.958c.296.69.445 1.432.438 2.182v5.602h-5.621a5.57 5.57 0 0 1-2.187-.434 5.671 5.671 0 0 1-3.026-3.001 5.617 5.617 0 0 1 0-4.346 5.603 5.603 0 0 1 1.218-1.767 5.788 5.788 0 0 1 1.808-1.193 5.569 5.569 0 0 1 2.187-.44Zm3.387 8.98v-3.4a3.282 3.282 0 0 0-.262-1.31 3.38 3.38 0 0 0-3.125-2.062 3.436 3.436 0 0 0-2.424.982 3.475 3.475 0 0 0-.73 1.072 3.28 3.28 0 0 0-.263 1.309 3.345 3.345 0 0 0 .996 2.4 3.397 3.397 0 0 0 2.42.986l3.388.024ZM40.568 12.052a5.532 5.532 0 0 1 2.196.44 5.64 5.64 0 0 1 2.987 2.964c.298.69.448 1.432.44 2.181v5.597h-5.623a5.555 5.555 0 0 1-2.185-.434 5.734 5.734 0 0 1-1.807-1.208 5.623 5.623 0 0 1-1.218-1.793 5.584 5.584 0 0 1 0-4.346c.285-.662.7-1.262 1.218-1.767a5.75 5.75 0 0 1 1.807-1.193 5.554 5.554 0 0 1 2.184-.44Zm3.39 8.98v-3.4a3.28 3.28 0 0 0-.266-1.31 3.389 3.389 0 0 0-3.124-2.054 3.436 3.436 0 0 0-2.424.983 3.422 3.422 0 0 0-.727 1.071 3.28 3.28 0 0 0-.263 1.31 3.352 3.352 0 0 0 .99 2.393 3.41 3.41 0 0 0 2.424.985l3.39.023ZM58.644 7.565V17.63a5.444 5.444 0 0 1-.438 2.167 5.62 5.62 0 0 1-3.002 3.001 5.707 5.707 0 0 1-4.38 0 5.672 5.672 0 0 1-3.025-3.001 5.616 5.616 0 0 1 0-4.345 5.604 5.604 0 0 1 1.218-1.768 5.787 5.787 0 0 1 1.819-1.193 5.565 5.565 0 0 1 2.184-.434h3.39v-4.49h2.234Zm-5.63 13.45a3.352 3.352 0 0 0 2.4-.984 3.381 3.381 0 0 0 .99-2.402v-3.363h-3.39a3.423 3.423 0 0 0-1.328.26c-.409.167-.78.412-1.093.722a3.475 3.475 0 0 0-.73 1.072c-.176.414-.265.86-.262 1.31a3.345 3.345 0 0 0 .994 2.399 3.396 3.396 0 0 0 2.42.987ZM74.559 12.05a5.533 5.533 0 0 1 2.198.434c.669.284 1.277.69 1.793 1.197a5.506 5.506 0 0 1 1.218 1.767c.298.689.448 1.432.441 2.181v5.603h-2.234v-5.603a3.231 3.231 0 0 0-.265-1.31 3.427 3.427 0 0 0-.728-1.07 3.437 3.437 0 0 0-2.423-.983 3.38 3.38 0 0 0-3.124 2.054c-.178.414-.267.86-.264 1.31v5.602h-2.237v-5.603a3.282 3.282 0 0 0-.262-1.31 3.427 3.427 0 0 0-.727-1.07 3.376 3.376 0 0 0-1.093-.731 3.443 3.443 0 0 0-1.331-.26 3.39 3.39 0 0 0-3.125 2.054c-.177.413-.268.859-.266 1.309v5.611h-2.233v-5.603a5.366 5.366 0 0 1 .44-2.181 5.609 5.609 0 0 1 3-2.958 5.554 5.554 0 0 1 2.184-.434 5.475 5.475 0 0 1 2.572.608 5.677 5.677 0 0 1 1.948 1.657 5.627 5.627 0 0 1 1.957-1.657c.79-.408 1.67-.62 2.56-.614ZM87.142 12.05a5.53 5.53 0 0 1 2.196.434 5.64 5.64 0 0 1 2.988 2.964c.298.689.448 1.432.44 2.181v5.603h-5.624a5.552 5.552 0 0 1-2.184-.435 5.735 5.735 0 0 1-3.034-3 5.586 5.586 0 0 1 0-4.346c.285-.662.699-1.263 1.218-1.767a5.755 5.755 0 0 1 1.816-1.194 5.554 5.554 0 0 1 2.184-.44Zm3.39 8.98v-3.4a3.284 3.284 0 0 0-.265-1.31 3.389 3.389 0 0 0-3.125-2.054 3.436 3.436 0 0 0-2.423.982 3.424 3.424 0 0 0-.728 1.072c-.176.414-.266.86-.262 1.31a3.354 3.354 0 0 0 .99 2.392 3.41 3.41 0 0 0 2.423.985l3.39.023ZM105.192 12.072v10.064a5.353 5.353 0 0 1-.441 2.178 5.808 5.808 0 0 1-1.203 1.79 5.608 5.608 0 0 1-1.769 1.2 5.532 5.532 0 0 1-2.196.434h-1.13v-2.213h1.13a3.39 3.39 0 0 0 1.879-.563c.557-.368.99-.892 1.245-1.505.17-.42.251-.87.24-1.321v-.026a5.359 5.359 0 0 1-1.571.846 5.672 5.672 0 0 1-7.017-3.137 5.39 5.39 0 0 1-.441-2.168v-5.58h2.236v5.58a3.339 3.339 0 0 0 .993 2.402 3.392 3.392 0 0 0 2.421.985 3.335 3.335 0 0 0 2.822-1.516c.366-.556.56-1.206.557-1.87v-5.58h2.245Z"/></g><defs><clipPath id="a"><path fill="#fff" d="M0 0h116v35.304H0z"/></clipPath></defs></svg>